<?xml version="1.0" encoding="UTF-8" standalone="no"?>
<svg
   xmlns:dc="http://purl.org/dc/elements/1.1/"
   xmlns:cc="http://creativecommons.org/ns#"
   xmlns:rdf="http://www.w3.org/1999/02/22-rdf-syntax-ns#"
   xmlns:svg="http://www.w3.org/2000/svg"
   xmlns="http://www.w3.org/2000/svg"
   xmlns:sodipodi="http://sodipodi.sourceforge.net/DTD/sodipodi-0.dtd"
   xmlns:inkscape="http://www.inkscape.org/namespaces/inkscape"
   id="Layer_1"
   data-name="Layer 1"
   viewBox="0 0 1000 1000"
   version="1.1"
   sodipodi:docname="Vkontakte_Glyph_Gray.svg"
   inkscape:version="0.92.3 (2405546, 2018-03-11)">
  <metadata
     id="metadata11">
    <rdf:RDF>
      <cc:Work
         rdf:about="">
        <dc:format>image/svg+xml</dc:format>
        <dc:type
           rdf:resource="http://purl.org/dc/dcmitype/StillImage" />
        <dc:title></dc:title>
      </cc:Work>
    </rdf:RDF>
  </metadata>
  <sodipodi:namedview
     pagecolor="#ffffff"
     bordercolor="#666666"
     borderopacity="1"
     objecttolerance="10"
     gridtolerance="10"
     guidetolerance="10"
     inkscape:pageopacity="0"
     inkscape:pageshadow="2"
     inkscape:window-width="1366"
     inkscape:window-height="705"
     id="namedview9"
     showgrid="false"
     inkscape:zoom="0.35355339"
     inkscape:cx="620.91608"
     inkscape:cy="550.73299"
     inkscape:window-x="-8"
     inkscape:window-y="-8"
     inkscape:window-maximized="1"
     inkscape:current-layer="Layer_1" />
  <defs
     id="defs4">
    <style
       id="style2">.cls-1{fill:#fff;}</style>
  </defs>
  <path
     style="opacity:1;fill:#bebec3;fill-opacity:1;fill-rule:nonzero;stroke:#bebec3;stroke-width:1.00913382;stroke-linejoin:round;stroke-miterlimit:4;stroke-dasharray:none;stroke-dashoffset:0;stroke-opacity:1;paint-order:normal"
     d="M 150 0 C 66.9 0 0 66.9 0 150 L 0 850 C 0 933.1 66.9 1000 150 1000 L 850 1000 C 933.1 1000 1000 933.1 1000 850 L 1000 150 C 1000 66.9 933.1 0 850 0 L 150 0 z M 48.742188 208.68945 L 211.87695 208.68945 C 197.00857 462.51613 332.42818 591.84181 413.14844 617.58789 L 413.14844 208.68945 L 552.97852 210.80859 L 552.97852 441.74023 C 679.48377 402.63707 753.43039 323.34301 783.91016 210.80859 L 923.74219 210.80859 C 898.23598 344.06634 883.41955 394.39789 726.70703 505.29883 C 895.12976 614.05459 946.12719 705.0802 951.2832 791.31641 L 792.38477 791.31641 C 757.71137 675.13833 687.02769 596.97033 550.85938 587.92578 L 550.85938 789.19727 L 408.91016 791.31641 C 62.380331 630.54642 71.867048 425.52947 48.742188 208.68945 z "
     id="rect4569" />
</svg>
